<svg id="Camada_1" data-name="Camada 1" xmlns="http://www.w3.org/2000/svg" viewBox="0 0 695.57 153"><defs><style>.cls-1{fill:#fff;}</style></defs><path class="cls-1" d="M141.58,132.13l-123.69.79v-103H42.7v76l56.09.14h.14c1.78,5.76,1.06,10.24,6.4,15.07a3.19,3.19,0,0,0,.64.5v1.57H108c6,4,14.5,5.61,23.31,7.11h.15C134.83,130.93,138.24,131.49,141.58,132.13Z"/><path class="cls-1" d="M224.94,130.83H199.49V30.32h25.45V33.5a45.06,45.06,0,0,1,18.24-3.61q17.38,0,29.69,12.94a45,45,0,0,1,14.95-9.55,46.69,46.69,0,0,1,17.28-3.39,39,39,0,0,1,29.48,12.83,43.17,43.17,0,0,1,12.09,30.64v57.47H323.34V73.36A20.17,20.17,0,0,0,317.93,59a17.06,17.06,0,0,0-12.83-5.73q-18.24,0-18.24,15.69v61.92H261.41V73.57q0-10.8-1.9-14-3.83-6.36-16.33-6.36-18.24,0-18.24,15.69Z"/><path class="cls-1" d="M380.53,29.2V130.3H357.21V29.2Z"/><path class="cls-1" d="M489.15,80.73V91.18H411.54a27.68,27.68,0,0,0,10.39,13,27.51,27.51,0,0,0,29.9,1,28.53,28.53,0,0,0,10.39-10.85L483,104.2a51.48,51.48,0,0,1-45.38,26.63q-21.63,0-36.58-15t-15-35.71a52.08,52.08,0,0,1,4.45-21.69,44.1,44.1,0,0,1,11.77-16,55.78,55.78,0,0,1,35.52-12.82,52.86,52.86,0,0,1,18.87,3.45,54.48,54.48,0,0,1,16.44,9.77A45,45,0,0,1,484.8,59,53.2,53.2,0,0,1,489.15,80.73ZM411.32,69.49h52.59a27.45,27.45,0,0,0-10.39-13.42Q443,48.89,429.33,52.18,416,57.33,411.32,69.49Z"/><path class="cls-1" d="M557.52,59.15a16.73,16.73,0,0,0-12.94-5.93q-18.24,0-18.24,15.69v61.92H500.9V30.32h25.44V33.5a45.06,45.06,0,0,1,18.24-3.61,38.67,38.67,0,0,1,27.15,10.6Z"/><path class="cls-1" d="M663.22,80.24V90.67H589.53a27.36,27.36,0,0,0,9.87,13,25.07,25.07,0,0,0,28.39,1,27.9,27.9,0,0,0,9.86-10.82l19.73,9.83a49.6,49.6,0,0,1-17.72,19.29Q621,134.76,596,127.37a15.28,15.28,0,0,1-4-1.88q-26.58-17.55-26.58-45.84A54.21,54.21,0,0,1,569.6,58a43.8,43.8,0,0,1,11.18-15.94,51.67,51.67,0,0,1,15.7-9.45,50.08,50.08,0,0,1,18-3.34,48.13,48.13,0,0,1,17.91,3.44A51.47,51.47,0,0,1,648,42.46,45,45,0,0,1,659.09,58.6,55.42,55.42,0,0,1,663.22,80.24ZM589.33,69h49.93a27.35,27.35,0,0,0-9.87-13.39,25.33,25.33,0,0,0-15.1-4.91,24.91,24.91,0,0,0-15.09,5A28,28,0,0,0,589.33,69Z"/><path class="cls-1" d="M191.13,43.77v49a33.72,33.72,0,0,1-1.64,10.45c-2,6.4-5.9,12.23-11.66,17.49-9.31,8.46-21.82,9.6-32.84,9.6H131.34c-8.81-1.5-17.27-3.13-23.31-7.11l37-.07c10.17,0,20.55-.93,28-7.75a32.35,32.35,0,0,0,9.74-14.43,26.48,26.48,0,0,0,1.28-8.25V50.81l-9,.21-.07-4.26V32.11c0-1.2-1.06-1.77-2.2-2.2-3.41-1.49-6.4.78-6.4,2l-.14,14.22-.07,4.69H156.3l-.79,35.69L149,82.73l-2.06,21.61-22-43.86,7.75,2.27-.78-11.94h-9.67V32.11c0-1.2-1.13-1.77-2.2-2.2-3.84-1.56-7.18.85-7.18,2.06v14.5l.07,4.34H106v70.8a3.19,3.19,0,0,1-.64-.5c-5.34-4.83-4.62-9.31-6.4-15.07h-.14V43.77h8.67V32c.5-8.46,4.41-9.38,10.66-9.31A9.34,9.34,0,0,1,127.43,32V43.77l7.68.07.07,2.92,1.28,21.39-5.54-2.55,15.14,30.71-.43-19.84,5.69,3.41.35-33,.08-3.06v-.07h9.52V32c0-5.12,2.35-9.31,9.31-9.31A9.35,9.35,0,0,1,179.9,32v11.8Z"/><path class="cls-1" d="M145,132.12l-14,0c-9.43-1.6-17.75-3.26-24-7.39L102,121.36h1c-3.32-3.5-4-6.91-4.75-10.51-.19-1-.39-2-.66-3H97.1L97,106V41.94h8.67V32c.61-10.41,6.52-11.2,12.51-11.14A11.15,11.15,0,0,1,129.26,32V42l7.64.07.11,4.68,1.46,24.39-3.63-1.68,9.21,18.68-.32-14.9,5.8,3.47L150,42l1.79-.07h7.69V32c0-7.08,4.06-11.14,11.14-11.14A11.16,11.16,0,0,1,181.73,32v10H193V92.75a35.34,35.34,0,0,1-1.73,11c-2.06,6.62-6.15,12.78-12.16,18.27C169.29,130.92,156.36,132.12,145,132.12Zm-13.49-3.66H145c10.67,0,22.77-1.09,31.61-9.13,5.52-5,9.27-10.65,11.15-16.67a32,32,0,0,0,1.55-9.91V45.6H178.07V32a7.5,7.5,0,0,0-7.49-7.48c-5,0-7.48,2.45-7.48,7.48V45.6h-9.57l0,1.34L153.11,83l.64.37L154.51,49h9.94l.18-17.1a4,4,0,0,1,2.09-3.16,7.24,7.24,0,0,1,6.87-.49c.75.28,3.3,1.24,3.3,3.88l0,17,9-.21V92.68a28.55,28.55,0,0,1-1.37,8.83,34.25,34.25,0,0,1-10.26,15.21c-7.89,7.22-18.71,8.21-29.23,8.21l-28.94.06A102.33,102.33,0,0,0,131.5,128.46ZM107.8,52.64v68.71l37.26-.07c9.78,0,19.79-.88,26.78-7.27a30.64,30.64,0,0,0,9.22-13.63,24.5,24.5,0,0,0,1.2-7.7v-40l-8.92.21-.11-6.1V32.11a3.16,3.16,0,0,0-1-.49,3.51,3.51,0,0,0-3.93.53l-.24,20.49h-10l-.81,37-6.76-3.89-2.39,25.11-26.78-53.3,9.28,2.72-.5-7.62h-9.79V32.11a9.57,9.57,0,0,0-1-.5,4.39,4.39,0,0,0-4.67.65l.1,20.38Zm-7.18,52.72.06.14c.51,1.66.81,3.16,1.11,4.62a18.46,18.46,0,0,0,2.35,6.85V49H111l0-2.48V32a4,4,0,0,1,2-3.08,8.2,8.2,0,0,1,7.68-.67c.91.36,3.34,1.33,3.34,3.89V49h9.48l-.15-3.32-7.73-.08V32a7.49,7.49,0,0,0-7.48-7.48c-6-.1-8.42.6-8.84,7.59V45.6h-8.67Zm46.91-25.57,1.75,1-1.75-1.05ZM134.36,65.17l.09,0h0ZM168.29,31.9v0Z"/></svg>