<svg id="Camada_1" data-name="Camada 1" xmlns="http://www.w3.org/2000/svg" viewBox="0 0 360.57 360.86"><defs><style>.cls-1{fill:#fff;}</style></defs><path class="cls-1" d="M72.53,80.35V306.41l120.64-.19c28.77,0,61.43-3,85.74-25.05,15-13.74,25.24-29,30.44-45.66a88.5,88.5,0,0,0,4.27-27.28V80.35H284.29V49.55A24.4,24.4,0,0,0,260,25.23c-18.33,0-24.31,11-24.31,24.32v30.8H210.8v.19l-.19,8-.92,86.12-14.85-8.91,1,51.9-38.79-78.51L170.75,144l-3.19-55.84-.2-7.62-20-.18V49.73A24.49,24.49,0,0,0,123,25.42c-16.41-.19-26.67,2.35-27.86,24.31V80.35ZM91.17,98.84h18L109,87.52V49.66c0-3.16,8.89-9.5,18.73-5.47,2.92,1.2,5.75,2.6,5.75,5.76V98.76l4.49.08h20.78l2.08,31.21-21.61-6.52,58.93,115,5.33-56.32L220.52,192l2-93.17h26l.19-12.25.37-37.12c0-3.15,7.92-9.06,16.78-5.28,2.9,1.24,5.75,2.6,5.75,5.76V88.18l.19,11.13,23.28-.47V208.15a68.67,68.67,0,0,1-3.34,21.53c-4.27,13.74-12.8,26.36-25.42,37.68-19.49,17.81-46.59,20.23-73.13,20.23l-102.07.18Z"/><path class="cls-1" d="M70.22,308.71V78H92.84V49.73C94.18,24.81,107.3,23,123,23.11a26.85,26.85,0,0,1,26.6,26.62V78.07l20,.17.26,9.85,3.39,59.25-11.57-4.13,31.67,64.1-.92-45.72,15,9,1.12-92.35L210.8,78h22.56V49.55c0-17.17,9.45-26.63,26.63-26.63a26.65,26.65,0,0,1,26.62,26.63V78h29.32V208.23a90.25,90.25,0,0,1-4.38,28c-5.27,16.92-15.73,32.62-31.08,46.64-24.9,22.61-58.1,25.66-87.3,25.66Zm4.63-226V304.09l118.32-.18c28.31,0,60.46-2.91,84.19-24.46C292.1,266,302.12,251,307.15,234.82a85.83,85.83,0,0,0,4.16-26.59V82.67H282V49.55a22,22,0,0,0-22-22c-14.6,0-22,7.41-22,22V82.67H213.06l-.14,5.91-1,90.12-14.72-8.84.88,44.17,3.38-35.65,16.82,9.68,2-91.53h26l.52-47.08c0-2.07,1.6-4.37,4.28-6.14a16.62,16.62,0,0,1,15.71-1.25C269.49,43.21,274,45.13,274,50l.16,47,23.31-.48V208.16A71,71,0,0,1,294,230.41c-4.35,14-13.13,27.06-26.08,38.67-20,18.3-47.71,20.82-74.66,20.82l-104.38.19V96.53h18l-.15-9V49.66c0-2,1.54-4.21,4.23-6a19.14,19.14,0,0,1,17.69-1.59c2.51,1,7.19,3,7.19,7.9V96.49l2.21,0h22.91l2.44,36.7-19.61-5.92,52.85,103.08.49-5.15L152.49,135l15.76,5.62-3.14-57.82L145,82.64V49.73a22.23,22.23,0,0,0-22-22c-17.09-.08-24.49,2.84-25.53,22.13V82.67Zm18.63,18.48V285.46l99.76-.19c26,0,52.7-2.37,71.56-19.62,12.33-11.06,20.67-23.38,24.78-36.65a66.45,66.45,0,0,0,3.24-20.84v-107l-23.24.47-.23-13.45V50c0-1.51-1.4-2.37-4.35-3.63a12,12,0,0,0-10.7.45c-2,1.15-2.81,2.41-2.86,2.73l-.59,51.65h-26L222.75,196l-17.34-10-5.73,60.62-65-126.84,23.62,7.12-1.71-25.72L131.14,101V50c0-1.38-1.09-2.3-4.31-3.62a14.43,14.43,0,0,0-12.28.5c-2.28,1.21-3.2,2.55-3.27,2.9l.23,51.42Z"/></svg>